<svg width="854" height="881" viewBox="0 0 854 881" fill="none" xmlns="http://www.w3.org/2000/svg">
  <g transform="scale(1, -1) translate(0, -881)">
    <g filter="url(#filter0_if_8_55)">
      <path d="M843.612 416.224L661.271 279.042C624.837 251.631 592.324 219.366 564.635 183.144L427.133 3.26761L252.704 228.166C263.804 272.342 309.223 373.207 417.675 387.754C450.209 392.127 504.14 395.804 592.319 372.386C593.3 372.208 594.282 372.083 595.263 371.922C608.005 385.291 634.311 442.105 705.464 472.537C742.941 486.531 765.374 472.752 789.002 456.009L843.612 416.224Z" fill="red"/>
      <path d="M843.612 416.224L661.271 279.042C624.837 251.631 592.324 219.366 564.635 183.144L427.133 3.26761L252.704 228.166C263.804 272.342 309.223 373.207 417.675 387.754C450.209 392.127 504.14 395.804 592.319 372.386C593.3 372.208 594.282 372.083 595.263 371.922C608.005 385.291 634.311 442.105 705.464 472.537C742.941 486.531 765.374 472.752 789.002 456.009L843.612 416.224Z" fill="url(#paint0_linear_8_55)"/>
    </g>
    <g filter="url(#filter1_df_8_55)">
      <path d="M592.319 372.083C626.673 365.639 663.186 372.904 684.976 381.007C697.861 386.166 752.792 406.924 788.878 455.724L843.612 415.885L661.239 278.648C624.861 251.273 592.393 219.059 564.734 182.898L427.133 3L252.704 227.898C263.804 272.075 309.223 372.94 417.675 387.487C450.209 391.86 504.14 395.537 592.319 372.119" fill="red"/>
      <path d="M592.319 372.083C626.673 365.639 663.186 372.904 684.976 381.007C697.861 386.166 752.792 406.924 788.878 455.724L843.612 415.885L661.239 278.648C624.861 251.273 592.393 219.059 564.734 182.898L427.133 3L252.704 227.898C263.804 272.075 309.223 372.94 417.675 387.487C450.209 391.86 504.14 395.537 592.319 372.119" fill="url(#paint2_linear_8_55)" fill-opacity="0.3"/>
      <path d="M592.319 372.083C626.673 365.639 663.186 372.904 684.976 381.007C697.861 386.166 752.792 406.924 788.878 455.724L843.612 415.885L661.239 278.648C624.861 251.273 592.393 219.059 564.734 182.898L427.133 3L252.704 227.898C263.804 272.075 309.223 372.94 417.675 387.487C450.209 391.86 504.14 395.537 592.319 372.119" fill="url(#paint3_linear_8_55)" style="mix-blend-mode:darken"/>
    </g>
    <g filter="url(#filter2_iif_8_55)">
      <path d="M30 429.075L267.177 607.601L446.514 842.031L620.944 617.133C609.826 572.956 564.425 472.127 455.973 457.58C423.457 453.207 369.508 449.53 281.329 472.948C280.365 473.127 279.384 473.252 278.402 473.412C265.642 460.043 239.355 403.23 168.184 372.797C130.707 358.803 108.292 372.583 84.6632 389.325L30 429.075Z" fill="red"/>
      <path d="M30 429.075L267.177 607.601L446.514 842.031L620.944 617.133C609.826 572.956 564.425 472.127 455.973 457.58C423.457 453.207 369.508 449.53 281.329 472.948C280.365 473.127 279.384 473.252 278.402 473.412C265.642 460.043 239.355 403.23 168.184 372.797C130.707 358.803 108.292 372.583 84.6632 389.325L30 429.075Z" fill="url(#paint4_linear_8_55)" style="mix-blend-mode:darken"/>
    </g>
    <g filter="url(#filter3_df_8_55)">
      <path d="M281.329 473.198C246.975 479.66 210.479 472.377 188.689 464.274C175.804 459.115 120.873 438.375 84.7702 389.575L30 429.343L223.348 574.864C252.431 596.753 278.391 622.51 300.507 651.421L446.514 842.281L620.944 617.383C609.861 573.224 564.425 472.359 455.973 457.812C423.457 453.439 369.508 449.762 281.329 473.163" fill="url(#paint5_linear_8_55)"/>
      <path d="M281.329 473.198C246.975 479.66 210.479 472.377 188.689 464.274C175.804 459.115 120.873 438.375 84.7702 389.575L30 429.343L223.348 574.864C252.431 596.753 278.391 622.51 300.507 651.421L446.514 842.281L620.944 617.383C609.861 573.224 564.425 472.359 455.973 457.812C423.457 453.439 369.508 449.762 281.329 473.163" fill="url(#paint6_radial_8_55)" fill-opacity="0.5" style="mix-blend-mode:multiply"/>
      <path d="M281.329 473.198C246.975 479.66 210.479 472.377 188.689 464.274C175.804 459.115 120.873 438.375 84.7702 389.575L30 429.343L223.348 574.864C252.431 596.753 278.391 622.51 300.507 651.421L446.514 842.281L620.944 617.383C609.861 573.224 564.425 472.359 455.973 457.812C423.457 453.439 369.508 449.762 281.329 473.163" fill="url(#paint7_linear_8_55)" style="mix-blend-mode:darken"/>
    </g>
  </g>
</svg>
